<?xml version="1.0" encoding="UTF-8"?>
<svg version="1.1" xmlns="http://www.w3.org/2000/svg" width="512" height="512">
<path d="M0 0 C0.7128566 -0.00686325 1.4257132 -0.0137265 2.16017151 -0.02079773 C4.506807 -0.0390364 6.85277202 -0.0352326 9.19946289 -0.02954102 C10.83704342 -0.03410434 12.47462203 -0.03941037 14.11219788 -0.04542542 C17.54102366 -0.0543508 20.96961645 -0.05194012 24.3984375 -0.04199219 C28.78449072 -0.03050478 33.16973856 -0.0507128 37.555686 -0.07990932 C40.93670224 -0.09828841 44.31752611 -0.09797548 47.69857979 -0.0922718 C49.31525362 -0.09211879 50.93194066 -0.09814682 52.54856682 -0.11056328 C54.81283411 -0.12550412 57.07562159 -0.11477548 59.33984375 -0.09765625 C61.26913979 -0.097407 61.26913979 -0.097407 63.2374115 -0.09715271 C68.23473663 0.61904341 71.25614122 2.5722856 74.41621399 6.48747253 C76.40116694 10.87859196 77.58835696 15.42071284 78.82910156 20.06933594 C79.26866936 21.67977028 79.26866936 21.67977028 79.71711731 23.32273865 C80.68200918 26.86484882 81.63608404 30.40977731 82.59008789 33.95483398 C83.25774303 36.41409551 83.92607182 38.87317425 84.595047 41.33207703 C86.1730445 47.13862044 87.74424598 52.94696091 89.31215411 58.75623339 C91.09817586 65.37213069 92.89288631 71.98566063 94.68831861 78.59900916 C98.38007149 92.19808866 102.05979049 105.80039068 105.73461914 119.40405273 C115.30461914 119.73405273 124.87461914 120.06405273 134.73461914 120.40405273 C134.71141602 117.24842773 134.68821289 114.09280273 134.66430664 110.84155273 C134.64868481 107.76684979 134.63655448 104.69215136 134.62475586 101.61743164 C134.61473209 99.48948164 134.60110953 97.3615453 134.58374023 95.23364258 C134.55933222 92.16541156 134.54809953 89.09736353 134.53930664 86.02905273 C134.52898407 85.08602295 134.5186615 84.14299316 134.50802612 83.17138672 C134.50688086 76.34562212 134.58180649 69.94326765 139.17211914 64.52905273 C143.21058472 61.18008127 145.21433874 60.15424024 150.4103241 60.1635437 C151.59242966 60.16079437 152.77453522 60.15804504 153.99246216 60.1552124 C155.29077972 60.16240295 156.58909729 60.16959351 157.92675781 60.17700195 C159.30649304 60.17756604 160.68622887 60.17724955 162.06596375 60.17611694 C165.8136529 60.17554235 169.56121443 60.18731392 173.30887389 60.20126486 C177.22465225 60.2137544 181.14043343 60.21494131 185.05622864 60.21731567 C192.47226055 60.22353567 199.8882336 60.23995351 207.30423957 60.26001465 C215.74670372 60.28235749 224.18917066 60.29336301 232.631657 60.30340552 C249.99934511 60.3243193 267.36697591 60.35950536 284.73461914 60.40405273 C284.72664307 59.37489746 284.71866699 58.34574219 284.71044922 57.28540039 C284.70399821 55.9213062 284.69774222 54.55721108 284.69165039 53.19311523 C284.68300964 52.17809937 284.68300964 52.17809937 284.67419434 51.14257812 C284.65225514 44.58874179 284.78650992 39.70182259 289.17211914 34.52905273 C293.3615235 31.05491253 295.54155203 30.14188561 300.93383789 29.98999023 C302.14233398 29.95131836 303.35083008 29.91264648 304.59594727 29.87280273 C305.85858398 29.84186523 307.1212207 29.81092773 308.42211914 29.77905273 C309.69635742 29.74038086 310.9705957 29.70170898 312.28344727 29.66186523 C315.43369206 29.56747588 318.58392905 29.48189443 321.73461914 29.40405273 C321.30874512 28.8976123 320.88287109 28.39117187 320.4440918 27.86938477 C316.09069877 22.44195967 314.89767031 19.18778346 315.27758789 12.18139648 C315.90259102 8.38330057 317.09087141 6.19070575 319.73461914 3.40405273 C323.40093094 0.80498924 326.05968009 -0.07022763 330.54711914 -0.15844727 C331.52293945 -0.20098633 332.49875977 -0.24352539 333.50415039 -0.28735352 C341.42622876 1.408182 347.27106161 8.67428994 352.73461914 14.27905273 C353.41395508 14.96741211 354.09329102 15.65577148 354.79321289 16.36499023 C356.445088 18.04013119 358.09205839 19.71978634 359.73461914 21.40405273 C362.94100751 19.99724485 365.02643506 18.32827817 367.44946289 15.81420898 C368.13588867 15.11231445 368.82231445 14.41041992 369.52954102 13.68725586 C370.95409136 12.21076203 372.37857091 10.73419989 373.80297852 9.25756836 C382.07282354 0.80170995 382.07282354 0.80170995 387.63696289 -0.02954102 C393.78533715 -0.03745398 398.0477621 -0.04245267 402.73461914 4.40405273 C405.33368264 8.07036453 406.2088995 10.72911369 406.29711914 15.21655273 C406.36092773 16.6802832 406.36092773 16.6802832 406.42602539 18.17358398 C405.4312034 22.82170706 402.75601881 25.82231038 399.73461914 29.40405273 C400.91435303 29.41807129 400.91435303 29.41807129 402.11791992 29.43237305 C405.69911152 29.48622555 409.27901797 29.56984637 412.85961914 29.65405273 C414.71586914 29.67532227 414.71586914 29.67532227 416.60961914 29.69702148 C428.23399584 30.00950473 428.23399584 30.00950473 432.73461914 34.40405273 C435.92793355 38.61544186 436.14975513 42.29570228 436.07519531 47.40722656 C436.07563339 48.19799591 436.07607147 48.98876526 436.07652283 49.80349731 C436.07443983 52.40628105 436.05113228 55.00841336 436.02758789 57.61108398 C436.02199019 59.41997424 436.01772091 61.22886906 436.01472473 63.0377655 C436.00328967 67.790605 435.97383402 72.54316794 435.94061279 77.29589844 C435.90988303 82.14896911 435.89621319 87.00208462 435.88110352 91.85522461 C435.84896304 101.37162193 435.79778287 110.8878143 435.73461914 120.40405273 C436.36022736 120.39517029 436.98583557 120.38628784 437.63040161 120.37713623 C444.15170134 120.28852579 450.67282955 120.22826144 457.19458008 120.18432617 C459.62726795 120.16423203 462.05990765 120.13695185 464.49243164 120.10229492 C467.99255269 120.05368213 471.49203416 120.03106135 474.99243164 120.01342773 C476.07702667 119.99278259 477.1616217 119.97213745 478.27908325 119.9508667 C484.24235722 119.94910142 488.16426534 120.14202728 492.73461914 124.40405273 C498.66764243 132.60174711 495.81219448 144.39166158 494.3027817 153.84495652 C493.91557237 156.18286184 493.51802066 158.51887343 493.12011719 160.85498047 C492.83833013 162.55979603 492.5575152 164.2647725 492.27758789 165.96989441 C491.52134221 170.55795289 490.75101463 175.14353947 489.97747016 179.72870898 C489.16695984 184.54484478 488.36802127 189.36290214 487.56733704 194.18067932 C486.2226284 202.26063733 484.86874177 210.33901634 483.50927734 218.41650391 C481.9395323 227.74408574 480.38430383 237.07400028 478.83678216 246.40529293 C477.34363543 255.40671225 475.84040198 264.40641889 474.33252907 273.40538216 C473.6925762 277.22563931 473.05611838 281.04645418 472.42249107 284.86776543 C471.67634714 289.36475993 470.92135712 293.86018262 470.15958405 298.35455513 C469.88200266 300.00075408 469.60742542 301.64746293 469.33612251 303.29470825 C468.9644459 305.54821054 468.58176731 307.79958166 468.19633484 310.05076599 C467.98524425 311.30926581 467.77415365 312.56776564 467.55666637 313.86440182 C466.07993504 320.22305521 463.980092 325.23151751 458.73461914 329.40405273 C452.47535684 331.66941589 446.07590417 332.13866289 439.48158264 332.76329041 C438.24801338 332.88538913 437.01444412 333.00748785 435.74349397 333.13328654 C432.33190136 333.46969799 428.91983666 333.80030739 425.50744927 334.12849653 C421.82252737 334.48435715 418.13835119 334.8477846 414.4540863 335.21037292 C408.07305836 335.83741845 401.69160496 336.45996939 395.30986214 337.07969475 C386.07405979 337.9767759 376.83918205 338.88310412 367.60454565 339.79210074 C352.60933098 341.26808318 337.6137102 342.73988956 322.61767578 344.20751953 C321.72056711 344.29532004 320.82345845 344.38312055 319.89916467 344.47358168 C309.89012834 345.45305672 299.88096857 346.43126037 289.87164307 347.40777588 C288.97175866 347.49557123 288.07187425 347.58336659 287.14472061 347.67382241 C286.24573512 347.7615295 285.34674963 347.8492366 284.42052215 347.93960148 C282.60765912 348.11647078 280.79479627 348.2933419 278.98193359 348.47021484 C278.08622322 348.55760305 277.19051284 348.64499127 276.26765973 348.7350276 C261.32785572 350.19283043 246.38889672 351.65910171 231.45058721 353.13213927 C222.24036575 354.03998437 213.02949259 354.94059135 203.81765329 355.83187354 C197.50529593 356.44316692 191.1937421 357.06232957 184.88276083 357.68766873 C181.2428319 358.0480749 177.60264376 358.40488819 173.9614296 358.75209045 C170.01129708 359.12882718 166.06295982 359.52253333 162.11463928 359.91783142 C160.96765047 360.02445711 159.82066165 360.13108279 158.6389156 360.24093956 C147.9783191 361.28058493 147.9783191 361.28058493 139.23461914 366.96655273 C137.22373644 371.5748256 137.05524623 375.44960151 137.73461914 380.40405273 C139.44962228 384.64642892 141.6342781 386.45150938 145.73461914 388.40405273 C150.65946091 389.78176443 155.6693929 389.54161678 160.73937988 389.52862549 C161.75536774 389.53003564 162.7713556 389.53144578 163.81813097 389.53289866 C167.22715653 389.53655247 170.63614051 389.53321472 174.04516602 389.5300293 C176.48783399 389.53142409 178.93050172 389.53332342 181.37316895 389.53569031 C185.95502962 389.53960565 190.53688399 389.54201988 195.11874586 389.5421063 C204.1304164 389.54230935 213.14203333 389.55478806 222.15368652 389.57171631 C223.57389687 389.57432207 224.99410723 389.57692088 226.41431761 389.57951283 C228.56669519 389.58345129 230.71907276 389.58739783 232.87145028 389.59137405 C240.98404091 389.60631618 249.09663319 389.61994169 257.20922852 389.63208008 C257.95064467 389.63319364 258.69206082 389.6343072 259.45594412 389.63545451 C271.45519121 389.65300796 283.45440455 389.65590001 295.45366234 389.65422967 C307.78802644 389.65294804 320.12226553 389.67075251 332.45658159 389.70524764 C340.05526012 389.7258376 347.65363851 389.73128071 355.25233275 389.71691933 C361.08678362 389.70741441 366.92093657 389.72416175 372.75532532 389.75040627 C375.13967068 389.75702845 377.52405752 389.7552118 379.90838623 389.7441082 C397.90615693 389.6672814 410.82325455 391.13278484 424.40649414 403.98608398 C434.34759145 414.51647314 436.30423751 426.46825632 436.07446289 440.26342773 C435.52988766 452.60110722 429.33489895 462.29554649 420.54711914 470.59155273 C408.58384603 480.32530677 395.54901793 481.73407472 380.73461914 480.40405273 C369.4136947 477.86934776 359.25675288 471.06113473 352.73461914 461.40405273 C348.95474619 454.66061742 345.61296725 448.6106116 345.60180664 440.77905273 C345.60051758 439.90764648 345.59922852 439.03624023 345.59790039 438.13842773 C345.60176758 437.23608398 345.60563477 436.33374023 345.60961914 435.40405273 C345.60575195 434.50170898 345.60188477 433.59936523 345.59790039 432.66967773 C345.59983398 431.36256836 345.59983398 431.36256836 345.60180664 430.02905273 C345.60293457 429.23756836 345.6040625 428.44608398 345.60522461 427.63061523 C345.73461914 425.40405273 345.73461914 425.40405273 346.73461914 421.40405273 C306.47461914 421.40405273 266.21461914 421.40405273 224.73461914 421.40405273 C225.06461914 422.72405273 225.39461914 424.04405273 225.73461914 425.40405273 C227.03114868 439.41149527 225.89789573 451.70020045 217.35961914 463.34155273 C210.10985101 471.84877529 200.17153041 479.53057179 188.65087891 480.59692383 C174.10602387 481.12362219 162.20612072 480.04730773 150.65649414 470.20483398 C143.25850043 463.27297402 136.22316044 453.69081938 135.60522461 443.20922852 C135.60353271 442.04109619 135.60353271 442.04109619 135.60180664 440.84936523 C135.59987305 439.55579102 135.59987305 439.55579102 135.59790039 438.23608398 C135.60176758 437.34276367 135.60563477 436.44944336 135.60961914 435.52905273 C135.60575195 434.6434668 135.60188477 433.75788086 135.59790039 432.84545898 C135.60474713 428.25129578 135.7949183 423.92356631 136.73461914 419.40405273 C135.98438477 419.0753418 135.23415039 418.74663086 134.46118164 418.40795898 C121.31279056 412.29743467 112.18018529 403.93677359 107.10180664 390.20874023 C105.51845035 385.28183692 105.23453039 380.67772292 105.29711914 375.52905273 C105.30469238 374.6520874 105.31226562 373.77512207 105.32006836 372.87158203 C105.65745944 359.57911233 111.37951947 349.03781464 120.92993164 339.91186523 C123.98347179 337.36063905 127.63234784 334.40405273 131.73461914 334.40405273 C131.32774117 333.1608577 131.32774117 333.1608577 130.91264343 331.89254761 C126.72217261 318.8071393 123.14840138 305.55881154 119.55097032 292.3005929 C118.6140446 288.85025549 117.67359158 285.40087946 116.73356628 281.9513855 C114.93949803 275.36590605 113.14843085 268.77961444 111.358504 262.1930083 C109.39164049 254.95578157 107.42174859 247.71938065 105.45142365 240.48309565 C102.91018882 231.14997904 100.36954574 221.81670165 97.83056641 212.48297119 C92.35340367 192.34808104 86.86973322 172.21497513 81.37915039 152.08374023 C81.19115144 151.39441988 81.00315248 150.70509953 80.80945659 149.99489069 C76.05864334 132.57573925 71.30210636 115.158162 66.53752327 97.74277115 C64.98121507 92.05341052 63.42601254 86.36374755 61.87090397 80.67405891 C60.58179155 75.95805707 59.2916183 71.24234893 57.99975586 66.52709961 C56.69301108 61.75729056 55.38868856 56.98682536 54.0860939 52.21588135 C53.60134983 50.44215557 53.11571862 48.66867197 52.62914658 46.89544678 C51.96780397 44.48488164 51.30956061 42.07349143 50.65209961 39.66186523 C50.35789124 38.59388702 50.35789124 38.59388702 50.05773926 37.5043335 C48.73461914 32.63221576 48.73461914 32.63221576 48.73461914 30.40405273 C48.04637054 30.41293518 47.35812195 30.42181763 46.64901733 30.43096924 C39.47890537 30.51953569 32.30894908 30.57982612 25.13842773 30.6237793 C22.46298539 30.64162099 19.78839898 30.67116322 17.11303711 30.70581055 C13.26543343 30.75438779 9.41841127 30.77703638 5.57055664 30.79467773 C4.37659271 30.81532288 3.18262878 30.83596802 1.95248413 30.85723877 C-4.41160747 30.85895442 -8.48257662 30.79615613 -13.26538086 26.40405273 C-17.32168484 21.18145416 -17.0393563 15.75065131 -16.26538086 9.40405273 C-12.73507398 1.95118266 -7.9692246 0.03349739 0 0 Z " fill="#F14973" transform="translate(16.265380859375,15.595947265625)"/>
<path d="M0 0 C24.14776776 -0.09027722 48.295399 -0.16396862 72.44329262 -0.20724869 C83.65545313 -0.22787807 94.86750138 -0.25600596 106.07958984 -0.30175781 C115.85150711 -0.34161394 125.62334308 -0.36743008 135.39533937 -0.37635398 C140.57005461 -0.38157077 145.74453727 -0.39384013 150.91917801 -0.42292023 C155.78976712 -0.45006987 160.66002783 -0.45844586 165.53068542 -0.45243073 C167.31812194 -0.45353116 169.10556944 -0.46148772 170.89294052 -0.4768219 C173.33476106 -0.49674314 175.77534404 -0.49193197 178.2171936 -0.48101807 C178.92343294 -0.49266943 179.62967227 -0.5043208 180.3573128 -0.51632524 C185.35693756 -0.45598197 188.20093924 0.7897538 192 4 C196.76202297 10.0676585 195.5576154 17.71473286 194.78860831 25.00364184 C194.13795036 30.17707789 193.2608481 35.3117129 192.38549805 40.45092773 C192.10371099 42.15574329 191.82289606 43.86071977 191.54296875 45.56584167 C190.78672307 50.15390016 190.01639549 54.73948674 189.24285102 59.32465625 C188.4323407 64.14079204 187.63340213 68.9588494 186.8327179 73.77662659 C185.48800926 81.8565846 184.13412262 89.93496361 182.7746582 98.01245117 C181.20491316 107.34003301 179.64968469 116.66994755 178.10216302 126.00124019 C176.60901629 135.00265952 175.10578284 144.00236616 173.59790993 153.00132942 C172.95795706 156.82158657 172.32149923 160.64240145 171.68787193 164.46371269 C170.941728 168.9607072 170.18673798 173.45612988 169.4249649 177.9505024 C169.14738352 179.59670135 168.87280628 181.2434102 168.60150337 182.89065552 C168.22982676 185.1441578 167.84714817 187.39552893 167.4617157 189.64671326 C167.2506251 190.90521308 167.03953451 192.1637129 166.82204723 193.46034908 C165.3453159 199.81900248 163.24547285 204.82746477 158 209 C151.36450734 211.44957231 144.41861521 211.83452858 137.4206543 212.51220703 C136.04664793 212.64989217 134.672697 212.7881314 133.29879761 212.92687988 C129.58229332 213.30049469 125.86503471 213.66601963 122.14755607 214.02979517 C118.24541229 214.41275997 114.34392504 214.80230917 110.44233704 215.19088745 C103.88851393 215.84256701 97.33419122 216.48902028 90.77954102 217.13232422 C83.22116946 217.87419897 75.66363114 218.62413412 68.10649365 219.37846863 C60.81606847 220.10600474 53.52509971 220.82794702 46.23386574 221.54732895 C43.14105343 221.85256532 40.04843821 222.15969663 36.95596886 222.4683876 C33.30628917 222.83243152 29.65615446 223.19153119 26.00562668 223.54696655 C24.04159373 223.73932801 22.07802884 223.93645021 20.11448669 224.13375854 C18.32944733 224.3061203 18.32944733 224.3061203 16.50834656 224.48196411 C15.48687373 224.58260729 14.46540091 224.68325047 13.41297436 224.78694344 C8.95010621 225.06554012 4.47155546 225 0 225 C0 200.25 0 175.5 0 150 C2.97 149.01 5.94 148.02 9 147 C13.57381068 142.42618932 14.12542494 138.71318202 14.17700195 132.4206543 C14.18357315 131.7568576 14.19014435 131.09306091 14.19691467 130.40914917 C14.21661179 128.21417115 14.22830216 126.01926144 14.23828125 123.82421875 C14.24235678 123.07321207 14.2464323 122.32220539 14.25063133 121.54844093 C14.27147676 117.57339377 14.28578507 113.59838098 14.29516602 109.62329102 C14.30622759 105.52421572 14.34062833 101.42568369 14.38033772 97.32680035 C14.40652063 94.16885896 14.41485929 91.01104674 14.41844749 87.85300636 C14.42330914 86.34236799 14.43491121 84.83173523 14.45348549 83.32120323 C14.47791455 81.2028775 14.47690616 79.08595366 14.4699707 76.9675293 C14.47583694 75.76412399 14.48170319 74.56071869 14.48774719 73.32084656 C13.89619504 69.2932397 12.53795919 67.14910787 10 64 C6.60821712 61.95079785 3.85857346 60.96464337 0 60 C0 40.2 0 20.4 0 0 Z " fill="#D92C49" transform="translate(317,136)"/>
<path d="M0 0 C0.97582031 -0.04253906 1.95164062 -0.08507813 2.95703125 -0.12890625 C10.87910962 1.56662926 16.72394247 8.8327372 22.1875 14.4375 C22.86683594 15.12585937 23.54617188 15.81421875 24.24609375 16.5234375 C25.89796886 18.19857846 27.54493925 19.8782336 29.1875 21.5625 C32.39388837 20.15569212 34.47931592 18.48672543 36.90234375 15.97265625 C37.58876953 15.27076172 38.27519531 14.56886719 38.98242188 13.84570312 C40.40697221 12.36920929 41.83145177 10.89264716 43.25585938 9.41601562 C51.5257044 0.96015722 51.5257044 0.96015722 57.08984375 0.12890625 C63.23821801 0.12099328 67.50064296 0.1159946 72.1875 4.5625 C74.7865635 8.22881179 75.66178036 10.88756095 75.75 15.375 C75.81380859 16.83873047 75.81380859 16.83873047 75.87890625 18.33203125 C74.88408426 22.98015433 72.20889967 25.98075765 69.1875 29.5625 C70.36723389 29.57651855 70.36723389 29.57651855 71.57080078 29.59082031 C75.15199238 29.64467282 78.73189883 29.72829363 82.3125 29.8125 C84.16875 29.83376953 84.16875 29.83376953 86.0625 29.85546875 C97.6868767 30.16795199 97.6868767 30.16795199 102.1875 34.5625 C116.94534936 59.1589156 105.1875 91.87839678 105.1875 120.5625 C5.8575 120.5625 -93.4725 120.5625 -195.8125 120.5625 C-195.8125 69.92147436 -195.8125 69.92147436 -191.375 64.6875 C-187.33653442 61.33852854 -185.3327804 60.3126875 -180.13679504 60.32199097 C-178.95468948 60.31924164 -177.77258392 60.31649231 -176.55465698 60.31365967 C-175.25633942 60.32085022 -173.95802185 60.32804077 -172.62036133 60.33544922 C-171.2406261 60.33601331 -169.86089027 60.33569681 -168.4811554 60.33456421 C-164.73346624 60.33398961 -160.98590471 60.34576119 -157.23824525 60.35971212 C-153.32246689 60.37220167 -149.40668571 60.37338858 -145.4908905 60.37576294 C-138.07485859 60.38198294 -130.65888554 60.39840078 -123.24287957 60.41846192 C-114.80041542 60.44080476 -106.35794848 60.45181028 -97.91546214 60.46185279 C-80.54777403 60.48276656 -63.18014323 60.51795263 -45.8125 60.5625 C-45.82047607 59.53334473 -45.82845215 58.50418945 -45.83666992 57.44384766 C-45.84312093 56.07975347 -45.84937692 54.71565834 -45.85546875 53.3515625 C-45.8641095 52.33654663 -45.8641095 52.33654663 -45.8729248 51.30102539 C-45.894864 44.74718905 -45.76060922 39.86026985 -41.375 34.6875 C-37.18559564 31.2133598 -35.00556711 30.30033288 -29.61328125 30.1484375 C-28.40478516 30.10976563 -27.19628906 30.07109375 -25.95117188 30.03125 C-24.68853516 30.0003125 -23.42589844 29.969375 -22.125 29.9375 C-20.85076172 29.89882813 -19.57652344 29.86015625 -18.26367188 29.8203125 C-15.11342708 29.72592314 -11.96319009 29.6403417 -8.8125 29.5625 C-9.45131104 28.80283936 -9.45131104 28.80283936 -10.10302734 28.02783203 C-14.45642037 22.60040694 -15.64944883 19.34623073 -15.26953125 12.33984375 C-14.64452813 8.54174784 -13.45624773 6.34915302 -10.8125 3.5625 C-7.14618821 0.9634365 -4.48743905 0.08821964 0 0 Z " fill="#60BF80" transform="translate(346.8125,15.4375)"/>
<path d="M0 0 C0.30292969 1.15757812 0.60585937 2.31515625 0.91796875 3.5078125 C1.34033369 5.04709807 1.76355652 6.58614843 2.1875 8.125 C2.48237305 9.26582031 2.48237305 9.26582031 2.78320312 10.4296875 C4.4337329 16.32080917 6.60042236 20.90896385 12.01953125 24.2421875 C12.61121094 24.45101563 13.20289063 24.65984375 13.8125 24.875 C14.864375 25.24625 15.91625 25.6175 17 26 C16.46375 26.2475 15.9275 26.495 15.375 26.75 C8.86301838 30.09653431 8.86301838 30.09653431 5 36 C4.43188906 40.53750945 4.46640852 44.68006319 6.1875 48.9375 C9.57804359 52.79570478 13.00423761 54.27513918 18 55 C21.33514411 55.14293278 24.66699004 55.13312543 28.00476074 55.12457275 C29.0207486 55.1259829 30.03673646 55.12739305 31.08351183 55.12884593 C34.49253739 55.13249973 37.90152137 55.12916199 41.31054688 55.12597656 C43.75321485 55.12737136 46.19588258 55.12927069 48.6385498 55.13163757 C53.22041048 55.13555292 57.80226484 55.13796714 62.38412672 55.13805357 C71.39579726 55.13825662 80.40741418 55.15073532 89.41906738 55.16766357 C90.83927773 55.17026934 92.25948809 55.17286815 93.67969847 55.1754601 C95.83207605 55.17939855 97.98445362 55.1833451 100.13683113 55.18732132 C108.24942177 55.20226344 116.36201405 55.21588896 124.47460938 55.22802734 C125.21602552 55.2291409 125.95744167 55.23025447 126.72132498 55.23140177 C138.72057207 55.24895522 150.71978541 55.25184727 162.7190432 55.25017694 C175.05340729 55.24889531 187.38764639 55.26669977 199.72196245 55.30119491 C207.32064098 55.32178487 214.91901937 55.32722798 222.51771361 55.3128666 C228.35216448 55.30336168 234.18631743 55.32010901 240.02070618 55.34635353 C242.40505154 55.35297571 244.78943838 55.35115906 247.17376709 55.34005547 C265.17153779 55.26322867 278.08863541 56.7287321 291.671875 69.58203125 C301.61297231 80.11242041 303.56961837 92.06420358 303.33984375 105.859375 C302.79526852 118.19705449 296.60027981 127.89149375 287.8125 136.1875 C275.84922689 145.92125403 262.81439879 147.33002199 248 146 C236.67907556 143.46529503 226.52213374 136.657082 220 127 C216.22012705 120.25656469 212.87834811 114.20655886 212.8671875 106.375 C212.86589844 105.50359375 212.86460937 104.6321875 212.86328125 103.734375 C212.86714844 102.83203125 212.87101563 101.9296875 212.875 101 C212.87113281 100.09765625 212.86726562 99.1953125 212.86328125 98.265625 C212.86521484 96.95851563 212.86521484 96.95851563 212.8671875 95.625 C212.86831543 94.83351563 212.86944336 94.04203125 212.87060547 93.2265625 C213 91 213 91 214 87 C173.74 87 133.48 87 92 87 C92.33 88.32 92.66 89.64 93 91 C94.29652954 105.00744253 93.16327659 117.29614771 84.625 128.9375 C77.37523187 137.44472256 67.43691127 145.12651905 55.91625977 146.19287109 C41.37140473 146.71956945 29.47150158 145.643255 17.921875 135.80078125 C10.52388129 128.86892129 3.4885413 119.28676665 2.87060547 108.80517578 C2.86947754 108.0264209 2.86834961 107.24766602 2.8671875 106.4453125 C2.86589844 105.58292969 2.86460937 104.72054687 2.86328125 103.83203125 C2.86714844 102.93871094 2.87101562 102.04539062 2.875 101.125 C2.86919922 99.79662109 2.86919922 99.79662109 2.86328125 98.44140625 C2.87012799 93.84724305 3.06029916 89.51951358 4 85 C3.24976563 84.67128906 2.49953125 84.34257812 1.7265625 84.00390625 C-11.42182858 77.89338193 -20.55443385 69.53272086 -25.6328125 55.8046875 C-27.21616879 50.87778419 -27.50008875 46.27367018 -27.4375 41.125 C-27.42992676 40.24803467 -27.42235352 39.37106934 -27.41455078 38.4675293 C-27.0773197 25.18136317 -21.3595516 14.62149599 -11.80078125 5.5078125 C-8.23811533 2.52475601 -4.77712275 0 0 0 Z " fill="#80334D" transform="translate(149,350)"/>
<path d="M0 0 C0.33 0 0.66 0 1 0 C1 24.75 1 49.5 1 75 C-48.83 75 -98.66 75 -150 75 C-150 24.35897436 -150 24.35897436 -145.5625 19.125 C-141.52403442 15.77602854 -139.5202804 14.7501875 -134.32429504 14.75949097 C-133.14218948 14.75674164 -131.96008392 14.75399231 -130.74215698 14.75115967 C-129.44383942 14.75835022 -128.14552185 14.76554077 -126.80786133 14.77294922 C-125.4281261 14.77351331 -124.04839027 14.77319681 -122.6686554 14.77206421 C-118.92096624 14.77148961 -115.17340471 14.78326119 -111.42574525 14.79721212 C-107.50996689 14.80970167 -103.59418571 14.81088858 -99.6783905 14.81326294 C-92.26235859 14.81948294 -84.84638554 14.83590078 -77.43037957 14.85596192 C-68.98791542 14.87830476 -60.54544848 14.88931028 -52.10296214 14.89935279 C-34.73527307 14.92026656 -17.367645 14.95585477 0 15 C0 10.05 0 5.1 0 0 Z " fill="#FFD57F" transform="translate(301,61)"/>
<path d="M0 0 C12.81384411 -0.11330429 25.62735134 -0.20489095 38.44158459 -0.25906086 C44.39280613 -0.28506968 50.34366491 -0.32030814 56.29467773 -0.37719727 C62.04595276 -0.43182815 67.79688052 -0.46148596 73.54839516 -0.47438622 C75.73429131 -0.4835705 77.92017009 -0.50150434 80.10591698 -0.52865028 C97.76441736 -0.73908663 110.3583055 0.98391057 123.671875 13.58203125 C133.61297231 24.11242041 135.56961837 36.06420358 135.33984375 49.859375 C134.79526852 62.19705449 128.60027981 71.89149375 119.8125 80.1875 C107.84922689 89.92125403 94.81439879 91.33002199 80 90 C68.67907556 87.46529503 58.52213374 80.657082 52 71 C48.22012705 64.25656469 44.87834811 58.20655886 44.8671875 50.375 C44.86589844 49.50359375 44.86460937 48.6321875 44.86328125 47.734375 C44.86714844 46.83203125 44.87101562 45.9296875 44.875 45 C44.86919922 43.64648438 44.86919922 43.64648438 44.86328125 42.265625 C44.86457031 41.39421875 44.86585938 40.5228125 44.8671875 39.625 C44.86831543 38.83351563 44.86944336 38.04203125 44.87060547 37.2265625 C45 35 45 35 46 31 C30.82 30.67 15.64 30.34 0 30 C0 20.1 0 10.2 0 0 Z " fill="#59243F" transform="translate(317,406)"/>
<path d="M0 0 C0.65480693 -0.0003616 1.30961386 -0.00072321 1.98426342 -0.00109577 C4.08968087 0.00113139 6.19428692 0.02391984 8.29956055 0.04760742 C9.59196655 0.05062866 10.88437256 0.0536499 12.21594238 0.0567627 C17.03946936 0.07244781 21.86288242 0.11433173 26.6862793 0.15307617 C37.4731543 0.21495117 48.2600293 0.27682617 59.3737793 0.34057617 C59.3737793 30.04057617 59.3737793 59.74057617 59.3737793 90.34057617 C34.6237793 90.34057617 9.8737793 90.34057617 -15.6262207 90.34057617 C-15.78665594 70.36638912 -15.78665594 70.36638912 -15.8215332 61.84057617 C-15.84542832 56.02695074 -15.87367139 50.21357774 -15.92797852 44.40014648 C-15.97149621 39.71226361 -15.99537046 35.02465149 -16.00572968 30.33658218 C-16.01311041 28.5496202 -16.02752341 26.76267273 -16.04914093 24.97582626 C-16.07825415 22.46931899 -16.08217348 19.96392502 -16.08032227 17.45727539 C-16.09470337 16.72143723 -16.10908447 15.98559906 -16.12390137 15.22746277 C-16.08317388 10.11828854 -14.92912717 7.21623767 -11.6262207 3.34057617 C-7.77533884 0.28455831 -4.85051554 -0.02782322 0 0 Z " fill="#8AE68A" transform="translate(317.626220703125,45.659423828125)"/>
<path d="M0 0 C0.7128566 -0.00686325 1.4257132 -0.0137265 2.16017151 -0.02079773 C4.506807 -0.0390364 6.85277202 -0.0352326 9.19946289 -0.02954102 C10.83704342 -0.03410434 12.47462203 -0.03941037 14.11219788 -0.04542542 C17.54102366 -0.0543508 20.96961645 -0.05194012 24.3984375 -0.04199219 C28.78449072 -0.03050478 33.16973856 -0.0507128 37.555686 -0.07990932 C40.93670224 -0.09828841 44.31752611 -0.09797548 47.69857979 -0.0922718 C49.31525362 -0.09211879 50.93194066 -0.09814682 52.54856682 -0.11056328 C54.81283411 -0.12550412 57.07562159 -0.11477548 59.33984375 -0.09765625 C61.26913979 -0.097407 61.26913979 -0.097407 63.2374115 -0.09715271 C68.23500014 0.61908118 71.25682764 2.57226443 74.41621399 6.48846436 C76.39949209 10.87438669 77.58794392 15.41052518 78.82910156 20.0534668 C79.26866936 21.6614917 79.26866936 21.6614917 79.71711731 23.30200195 C80.6820808 26.83928449 81.63617091 30.37940175 82.59008789 33.91967773 C83.25777933 36.37653394 83.92610769 38.83321714 84.595047 41.28973389 C85.99403354 46.43306185 87.38836638 51.57761498 88.77832031 56.72338867 C90.74085802 63.98888757 92.71361793 71.251582 94.68831861 78.51378298 C96.22008489 84.14853558 97.74897612 89.78406871 99.27758789 95.41967773 C99.60522818 96.62745125 99.93286846 97.83522476 100.27043724 99.07959747 C101.1912357 102.47673253 102.11014819 105.87437109 103.02832031 109.2722168 C103.30412933 110.28934753 103.57993835 111.30647827 103.86410522 112.35443115 C104.11219437 113.27413696 104.36028351 114.19384277 104.6158905 115.14141846 C104.83322436 115.9451804 105.05055822 116.74894234 105.27447796 117.5770607 C105.73461914 119.40405273 105.73461914 119.40405273 105.73461914 120.40405273 C94.84461914 120.40405273 83.95461914 120.40405273 72.73461914 120.40405273 C69.60272291 108.9655514 66.4729592 97.52647254 63.34698486 86.08635139 C61.89550931 80.77472795 60.4430869 75.46336716 58.98852539 70.15258789 C57.58580069 65.03093603 56.18553081 59.90861893 54.7869873 54.78582382 C54.25199436 52.82788893 53.71610531 50.87019867 53.17932129 48.91275406 C52.42978133 46.1788806 51.68338304 43.4441681 50.93774414 40.70922852 C50.71332642 39.89355408 50.48890869 39.07787964 50.25769043 38.23748779 C48.73461914 32.63215706 48.73461914 32.63215706 48.73461914 30.40405273 C48.04637054 30.41293518 47.35812195 30.42181763 46.64901733 30.43096924 C39.47890537 30.51953569 32.30894908 30.57982612 25.13842773 30.6237793 C22.46298539 30.64162099 19.78839898 30.67116322 17.11303711 30.70581055 C13.26543343 30.75438779 9.41841127 30.77703638 5.57055664 30.79467773 C4.37659271 30.81532288 3.18262878 30.83596802 1.95248413 30.85723877 C-4.41160747 30.85895442 -8.48257662 30.79615613 -13.26538086 26.40405273 C-17.32168484 21.18145416 -17.0393563 15.75065131 -16.26538086 9.40405273 C-12.73507398 1.95118266 -7.9692246 0.03349739 0 0 Z " fill="#80324D" transform="translate(16.265380859375,15.595947265625)"/>
<path d="M0 0 C3.5677811 2.35149209 5.84221079 4.99692157 7.75 8.8125 C7.85725116 10.96577324 7.89889871 13.12241243 7.91113281 15.27832031 C7.91609772 15.94197098 7.92106262 16.60562164 7.92617798 17.28938293 C7.94080823 19.48980745 7.94760416 21.69015979 7.953125 23.890625 C7.95887721 25.42038983 7.96463493 26.95015464 7.97039795 28.47991943 C7.98091139 31.69120622 7.98675132 34.90246795 7.99023438 38.11376953 C7.99570977 42.2206213 8.0197156 46.32713997 8.04820633 50.43388748 C8.06687178 53.5961197 8.07204045 56.75827247 8.07357025 59.92055511 C8.07659018 61.4339657 8.08459643 62.94737511 8.09775543 64.46073151 C8.11489294 66.5837753 8.11291711 68.70601584 8.10644531 70.82910156 C8.11009094 72.03552307 8.11373657 73.24194458 8.11749268 74.48492432 C7.56562963 79.48193835 5.92690029 82.72386723 2.25 86.125 C-2.03756121 89.01910382 -6.19559487 89.45359183 -11.25 88.8125 C-15.60581119 87.43374525 -17.85928443 85.38991326 -20.41992188 81.60571289 C-23.38465779 75.30884766 -22.82536855 68.43428678 -22.78125 61.62109375 C-22.78394942 60.14713791 -22.78783558 58.67318381 -22.79284668 57.19923401 C-22.79871883 54.12198805 -22.79025227 51.04520894 -22.77148438 47.96801758 C-22.74867521 44.03832385 -22.76184363 40.10972194 -22.78577423 36.18006802 C-22.80027749 33.14040504 -22.79560605 30.10099796 -22.78526306 27.06132698 C-22.78260928 25.61295502 -22.78581774 24.16455926 -22.79518127 22.71621513 C-22.86575222 8.73739195 -22.86575222 8.73739195 -18.25 2.8125 C-13.03108336 -2.1454708 -6.565322 -2.39886766 0 0 Z " fill="#D9E4FE" transform="translate(324.25,197.1875)"/>
<path d="M0 0 C4.01076955 3.29958154 5.6693699 6.68203473 6.27900696 11.76292419 C6.44100245 15.79246872 6.47814595 19.80399126 6.4609375 23.8359375 C6.46617985 25.33134852 6.47245856 26.82675624 6.47972107 28.32215881 C6.49009846 31.44824847 6.48560304 34.57388219 6.47094727 37.69995117 C6.4537678 41.68914515 6.47725622 45.67689754 6.51243687 49.66593075 C6.53448881 52.75197233 6.53295071 55.83767312 6.52467155 58.923769 C6.52385619 60.39365787 6.53063978 61.86357281 6.54544258 63.33338737 C6.66293864 77.11059222 6.66293864 77.11059222 2.29576111 83.15504456 C-1.14100131 86.59749556 -4.93065875 87.4117425 -9.60546875 87.99609375 C-13.82825356 87.46824565 -16.91042501 86.33427707 -20.10546875 83.55859375 C-25.06700439 76.23943712 -24.69239894 68.96583581 -24.63671875 60.3671875 C-24.63941817 58.89323166 -24.64330433 57.41927756 -24.64831543 55.94532776 C-24.65418758 52.8680818 -24.64572102 49.79130269 -24.62695312 46.71411133 C-24.60414396 42.7844176 -24.61731238 38.85581569 -24.64124298 34.92616177 C-24.65574624 31.88649879 -24.6510748 28.84709171 -24.64073181 25.80742073 C-24.63807803 24.35904877 -24.64128649 22.91065301 -24.65065002 21.46230888 C-24.7212525 7.47724162 -24.7212525 7.47724162 -20.10546875 1.55859375 C-14.02480529 -4.09684848 -7.08748902 -3.24783102 0 0 Z " fill="#D9E3FD" transform="translate(416.10546875,198.44140625)"/>
<path d="M0 0 C3.98939541 3.28199746 5.66911719 6.66893953 6.2721405 11.72410583 C6.42416794 15.69138707 6.4514413 19.64811139 6.42578125 23.6171875 C6.42848014 25.09017696 6.43236586 26.56316467 6.43737793 28.03614807 C6.44325629 31.11517387 6.43476578 34.1937337 6.41601562 37.27270508 C6.3932464 41.20120903 6.40634565 45.12861847 6.43030548 49.05708218 C6.44482627 52.09678753 6.44012865 55.13623755 6.42979431 58.175951 C6.42714326 59.62349645 6.43033918 61.07106577 6.43971252 62.5185833 C6.48041329 70.57049126 6.40598119 76.73463617 1.89453125 83.55859375 C-1.48114322 86.50969885 -5.28811854 87.44387793 -9.66796875 88.05859375 C-13.83623821 87.45230001 -16.93965735 86.30888158 -20.10546875 83.55859375 C-25.06700439 76.23943712 -24.69239894 68.96583581 -24.63671875 60.3671875 C-24.63941817 58.89323166 -24.64330433 57.41927756 -24.64831543 55.94532776 C-24.65418758 52.8680818 -24.64572102 49.79130269 -24.62695312 46.71411133 C-24.60414396 42.7844176 -24.61731238 38.85581569 -24.64124298 34.92616177 C-24.65574624 31.88649879 -24.6510748 28.84709171 -24.64073181 25.80742073 C-24.63807803 24.35904877 -24.64128649 22.91065301 -24.65065002 21.46230888 C-24.7212525 7.47724162 -24.7212525 7.47724162 -20.10546875 1.55859375 C-14.02480529 -4.09684848 -7.08748902 -3.24783102 0 0 Z " fill="#ECF1FE" transform="translate(236.10546875,198.44140625)"/>
<path d="M0 0 C0.97582031 -0.04253906 1.95164062 -0.08507813 2.95703125 -0.12890625 C10.87910962 1.56662926 16.72394247 8.8327372 22.1875 14.4375 C22.86683594 15.12585937 23.54617188 15.81421875 24.24609375 16.5234375 C25.89796886 18.19857846 27.54493925 19.8782336 29.1875 21.5625 C32.39388837 20.15569212 34.47931592 18.48672543 36.90234375 15.97265625 C37.93198242 14.91981445 37.93198242 14.91981445 38.98242188 13.84570312 C40.40697221 12.36920929 41.83145177 10.89264716 43.25585938 9.41601562 C51.5257044 0.96015722 51.5257044 0.96015722 57.08984375 0.12890625 C63.23821801 0.12099328 67.50064296 0.1159946 72.1875 4.5625 C76.0345569 9.98926626 76.25650774 15.09834382 75.1875 21.5625 C73.35428047 25.08708279 70.97684687 27.77315313 68.1875 30.5625 C65.84698582 30.69460356 63.53513528 30.76225491 61.19262695 30.78710938 C60.46084732 30.79849945 59.72906769 30.80988953 58.97511292 30.82162476 C51.30759281 30.93238651 43.63909915 30.97973161 35.97094727 31.02246094 C32.33212048 31.0447267 28.6943209 31.08647426 25.0559082 31.14550781 C20.66501807 31.21661632 16.27509382 31.25329608 11.88365746 31.26557922 C10.21105393 31.27597886 8.53847955 31.29840141 6.86620522 31.33317566 C-6.23327698 31.59143756 -6.23327698 31.59143756 -10.17129517 29.02563477 C-11.72237119 27.25782237 -12.8086531 25.68056509 -13.8125 23.5625 C-14.1425 22.9025 -14.4725 22.2425 -14.8125 21.5625 C-15.3224099 15.97856867 -15.55120063 11.12197912 -13.125 6 C-9.15811445 1.8186882 -5.78163816 0.11366261 0 0 Z " fill="#F24872" transform="translate(346.8125,15.4375)"/>
<path d="M0 0 C0 29.7 0 59.4 0 90 C-8.4 88.8 -8.4 88.8 -12 85 C-16.10473905 78.11839784 -15.45474418 70.70376742 -15.43359375 62.90625 C-15.43816114 61.43086508 -15.44346836 59.95548229 -15.44947815 58.48010254 C-15.45838398 55.39696577 -15.45601461 52.31408839 -15.44604492 49.23095703 C-15.43454863 45.29342689 -15.45478864 41.35679271 -15.48396206 37.41938019 C-15.50236623 34.37545147 -15.50202347 31.33173593 -15.49632454 28.2877655 C-15.49617189 26.836591 -15.50216942 25.38540153 -15.51461601 23.9342804 C-15.6181243 9.89175323 -15.6181243 9.89175323 -11 4 C-7.6289837 1.05036074 -4.51478905 0 0 0 Z " fill="#ECF0FE" transform="translate(317,196)"/>
<path d="M0 0 C4.62215198 2.18944041 6.71179348 4.50115328 9 9 C9.89129744 14.00922979 10.07287212 18.93727562 7.6875 23.5234375 C5.93365256 25.8590901 4.0611878 27.9388122 2 30 C-0.8116338 30.08861992 -3.59858255 30.11522355 -6.41015625 30.09765625 C-7.25219101 30.0962413 -8.09422577 30.09482635 -8.96177673 30.09336853 C-11.66205335 30.08775263 -14.36224828 30.07519748 -17.0625 30.0625 C-18.88867068 30.05748705 -20.71484266 30.05292379 -22.54101562 30.04882812 C-27.02737542 30.03777804 -31.51367384 30.02050279 -36 30 C-36.13867188 23.25146484 -36.13867188 23.25146484 -34.890625 20.98828125 C-34.34921875 20.43527344 -33.8078125 19.88226563 -33.25 19.3125 C-32.61835938 18.65507813 -31.98671875 17.99765625 -31.3359375 17.3203125 C-30.56507813 16.55460937 -29.79421875 15.78890625 -29 15 C-28.01165723 13.97787928 -27.024772 12.95434792 -26.0390625 11.9296875 C-24.98578378 10.84758529 -23.93109304 9.76685571 -22.875 8.6875 C-22.37258789 8.1716333 -21.87017578 7.6557666 -21.35253906 7.12426758 C-14.56344138 0.32512685 -9.4863867 -1.15687643 0 0 Z " fill="#DA2D4A" transform="translate(413,16)"/>
<path d="M0 0 C4.14374812 2.29314216 6.33723536 4.938401 7.8125 9.4375 C8.65187362 15.31311535 7.76319986 18.86346837 4.36328125 23.73828125 C0.98046988 27.44488817 -2.87326887 28.27322111 -7.6875 28.875 C-11.89682607 28.34883424 -15.0207356 27.23585369 -18.1875 24.4375 C-21.62339266 19.77883377 -23.03044428 15.23274192 -22.1875 9.4375 C-20.42898855 4.50534364 -17.74068059 1.40845153 -13.0390625 -0.90234375 C-8.34602817 -2.57559861 -4.45447532 -1.90552555 0 0 Z " fill="#E9EEFB" transform="translate(204.1875,437.5625)"/>
<path d="M0 0 C4.36492736 2.40706674 5.93942071 4.83284673 7.8125 9.4375 C8.54520346 14.47483626 7.62027557 18.24512573 5.20703125 22.63671875 C1.89427009 26.91454198 -2.56531496 28.20982491 -7.75 28.9375 C-11.90567414 28.33303831 -15.0494453 27.21048398 -18.1875 24.4375 C-21.62339266 19.77883377 -23.03044428 15.23274192 -22.1875 9.4375 C-20.42898855 4.50534364 -17.74068059 1.40845153 -13.0390625 -0.90234375 C-8.34602817 -2.57559861 -4.45447532 -1.90552555 0 0 Z " fill="#D6E1FB" transform="translate(414.1875,437.5625)"/>
</svg>
